<svg xmlns="http://www.w3.org/2000/svg" width="1200" height="630" viewBox="0 0 1200 630">
  <defs>
    <linearGradient id="bg-gradient" x1="0%" y1="0%" x2="100%" y2="100%">
      <stop offset="0%" style="stop-color:#f9fafb;stop-opacity:1" />
      <stop offset="100%" style="stop-color:#ffffff;stop-opacity:1" />
    </linearGradient>
    <linearGradient id="text-gradient" x1="0%" y1="0%" x2="100%" y2="0%">
      <stop offset="0%" style="stop-color:#10B981;stop-opacity:1" />
      <stop offset="50%" style="stop-color:#14B8A6;stop-opacity:1" />
      <stop offset="100%" style="stop-color:#06B6D4;stop-opacity:1" />
    </linearGradient>
    <linearGradient id="icon-gradient" x1="0%" y1="0%" x2="100%" y2="100%">
      <stop offset="0%" style="stop-color:#10B981;stop-opacity:1" />
      <stop offset="100%" style="stop-color:#14B8A6;stop-opacity:1" />
    </linearGradient>
    <filter id="shadow" x="-20%" y="-20%" width="140%" height="140%">
      <feDropShadow dx="0" dy="4" stdDeviation="8" flood-color="#10B981" flood-opacity="0.25"/>
    </filter>
  </defs>
  
  <!-- Background -->
  <rect width="1200" height="630" fill="url(#bg-gradient)"/>
  
  <!-- Decorative Elements -->
  <circle cx="100" cy="100" r="200" fill="#10B981" opacity="0.05"/>
  <circle cx="1100" cy="530" r="250" fill="#14B8A6" opacity="0.05"/>
  <circle cx="900" cy="100" r="150" fill="#06B6D4" opacity="0.03"/>
  
  <!-- Grid Pattern -->
  <pattern id="grid" width="40" height="40" patternUnits="userSpaceOnUse">
    <path d="M 40 0 L 0 0 0 40" fill="none" stroke="#e5e7eb" stroke-width="0.5"/>
  </pattern>
  <rect width="1200" height="630" fill="url(#grid)" opacity="0.5"/>
  
  <!-- Logo Icon -->
  <g transform="translate(100, 200)" filter="url(#shadow)">
    <rect width="100" height="100" rx="24" fill="url(#icon-gradient)"/>
    <path d="M30 30h40v8h-32v12h28v8h-28v18h-8v-46zm50 16v32h-8v-24h-16v-8h24z" fill="white"/>
  </g>
  
  <!-- Main Title -->
  <text x="230" y="245" font-family="Inter, -apple-system, sans-serif" font-size="72" font-weight="800" fill="#111827">FOMO</text>
  
  <!-- Subtitle -->
  <text x="230" y="310" font-family="Inter, -apple-system, sans-serif" font-size="32" font-weight="600" fill="url(#text-gradient)">The Future of Crypto Analytics</text>
  
  <!-- Description -->
  <text x="100" y="420" font-family="Inter, -apple-system, sans-serif" font-size="24" fill="#6b7280">
    <tspan x="100" dy="0">AI-powered insights • Real-time market data • NFT tools</tspan>
  </text>
  
  <!-- Stats -->
  <g transform="translate(100, 480)">
    <rect width="180" height="80" rx="16" fill="white" stroke="#e5e7eb" stroke-width="1"/>
    <text x="90" y="35" font-family="Inter, sans-serif" font-size="28" font-weight="700" fill="#111827" text-anchor="middle">10K+</text>
    <text x="90" y="60" font-family="Inter, sans-serif" font-size="14" fill="#6b7280" text-anchor="middle">Active Users</text>
  </g>
  
  <g transform="translate(300, 480)">
    <rect width="180" height="80" rx="16" fill="white" stroke="#e5e7eb" stroke-width="1"/>
    <text x="90" y="35" font-family="Inter, sans-serif" font-size="28" font-weight="700" fill="#111827" text-anchor="middle">$50M+</text>
    <text x="90" y="60" font-family="Inter, sans-serif" font-size="14" fill="#6b7280" text-anchor="middle">Trading Volume</text>
  </g>
  
  <g transform="translate(500, 480)">
    <rect width="180" height="80" rx="16" fill="white" stroke="#e5e7eb" stroke-width="1"/>
    <text x="90" y="35" font-family="Inter, sans-serif" font-size="28" font-weight="700" fill="#111827" text-anchor="middle">666</text>
    <text x="90" y="60" font-family="Inter, sans-serif" font-size="14" fill="#6b7280" text-anchor="middle">NFT Collection</text>
  </g>
  
  <!-- Chart Decoration -->
  <g transform="translate(750, 150)">
    <rect width="350" height="300" rx="20" fill="white" stroke="#e5e7eb" stroke-width="1" filter="url(#shadow)"/>
    <text x="30" y="40" font-family="Inter, sans-serif" font-size="16" font-weight="600" fill="#111827">Market Overview</text>
    <circle cx="310" cy="30" r="6" fill="#10B981"/>
    
    <!-- Chart bars -->
    <rect x="30" y="220" width="30" height="50" rx="4" fill="#e5e7eb"/>
    <rect x="70" y="180" width="30" height="90" rx="4" fill="#e5e7eb"/>
    <rect x="110" y="200" width="30" height="70" rx="4" fill="#10B981"/>
    <rect x="150" y="140" width="30" height="130" rx="4" fill="#e5e7eb"/>
    <rect x="190" y="160" width="30" height="110" rx="4" fill="#14B8A6"/>
    <rect x="230" y="120" width="30" height="150" rx="4" fill="#e5e7eb"/>
    <rect x="270" y="100" width="30" height="170" rx="4" fill="#06B6D4"/>
    
    <!-- Crypto prices -->
    <g transform="translate(30, 250)">
      <text font-family="Inter, sans-serif" font-size="12" fill="#6b7280">BTC</text>
      <text x="60" font-family="Inter, sans-serif" font-size="12" font-weight="600" fill="#111827">$88,954</text>
      <text x="130" font-family="Inter, sans-serif" font-size="12" fill="#10B981">+1.57%</text>
    </g>
    <g transform="translate(180, 250)">
      <text font-family="Inter, sans-serif" font-size="12" fill="#6b7280">ETH</text>
      <text x="60" font-family="Inter, sans-serif" font-size="12" font-weight="600" fill="#111827">$2,982</text>
      <text x="120" font-family="Inter, sans-serif" font-size="12" fill="#10B981">+1.82%</text>
    </g>
  </g>
  
  <!-- Website URL -->
  <text x="1100" y="600" font-family="Inter, sans-serif" font-size="18" fill="#9ca3af" text-anchor="end">fomo.io</text>
</svg>